<svg width="71" height="71" viewBox="0 0 71 71" fill="none" xmlns="http://www.w3.org/2000/svg">
<path d="M60.6141 10.3857C46.7668 -3.46156 24.2344 -3.46292 10.3857 10.3857C-3.46292 24.2344 -3.46156 46.7655 10.3857 60.6141C24.233 74.4628 46.7655 74.4628 60.6141 60.6141C74.4614 46.7655 74.4614 24.233 60.6141 10.3857ZM49.5057 49.5057C48.4388 50.5725 46.7094 50.5725 45.6426 49.5057L35.4999 39.363L24.8751 49.9879C23.8082 51.0547 22.0788 51.0547 21.012 49.9879C19.9451 48.921 19.9451 47.1917 21.012 46.1248L31.6368 35.4999L21.4942 25.3573C20.4273 24.2904 20.4273 22.5597 21.4942 21.4942C22.561 20.4273 24.2904 20.4273 25.3573 21.4942L35.4999 31.6368L45.159 21.9777C46.2259 20.9109 47.9553 20.9109 49.0221 21.9777C50.089 23.0446 50.089 24.774 49.0221 25.8408L39.363 35.4999L49.5057 45.6426C50.5725 46.7094 50.5725 48.4388 49.5057 49.5057Z" fill="black"/>
</svg>
